M48
; DRILL file {KiCad 8.0.6-8.0.6-0~ubuntu22.04.1} date 2024-10-27T17:12:51+0100
; FORMAT={-:-/ absolute / inch / decimal}
; #@! TF.CreationDate,2024-10-27T17:12:51+01:00
; #@! TF.GenerationSoftware,Kicad,Pcbnew,8.0.6-8.0.6-0~ubuntu22.04.1
; #@! TF.FileFunction,Plated,1,2,PTH
FMAT,2
INCH
; #@! TA.AperFunction,Plated,PTH,ComponentDrill
T1C0.0295
; #@! TA.AperFunction,Plated,PTH,ComponentDrill
T2C0.0300
; #@! TA.AperFunction,Plated,PTH,ViaDrill
T3C0.0315
; #@! TA.AperFunction,Plated,PTH,ComponentDrill
T4C0.0315
; #@! TA.AperFunction,Plated,PTH,ComponentDrill
T5C0.0335
; #@! TA.AperFunction,Plated,PTH,ComponentDrill
T6C0.0340
; #@! TA.AperFunction,Plated,PTH,ComponentDrill
T7C0.0354
; #@! TA.AperFunction,Plated,PTH,ComponentDrill
T8C0.0394
; #@! TA.AperFunction,Plated,PTH,ComponentDrill
T9C0.0433
; #@! TA.AperFunction,Plated,PTH,ComponentDrill
T10C0.0472
; #@! TA.AperFunction,Plated,PTH,ComponentDrill
T11C0.0512
; #@! TA.AperFunction,Plated,PTH,ComponentDrill
T12C0.0630
; #@! TA.AperFunction,Plated,PTH,ComponentDrill
T13C0.1260
%
G90
G05
T1
X6.8685Y-8.4134
X6.9185Y-8.4134
X6.9268Y-4.152
X6.9268Y-4.202
X6.9268Y-4.252
X6.9685Y-8.4134
X7.1756Y-8.4087
X7.2256Y-8.4087
X7.2756Y-8.4087
X7.4787Y-8.4055
X7.5287Y-8.4055
X7.5787Y-8.4055
X7.6299Y-5.7441
X7.6299Y-5.7941
X7.6299Y-5.8441
X7.7819Y-8.4055
X7.8319Y-8.4055
X7.8819Y-8.4055
X8.085Y-8.4055
X8.135Y-8.4055
X8.185Y-8.4055
X8.3961Y-8.4094
X8.4461Y-8.4094
X8.4961Y-8.4094
X8.6913Y-8.4055
X8.6969Y-5.7441
X8.6969Y-5.7941
X8.6969Y-5.8441
X8.7413Y-8.4055
X8.7913Y-8.4055
X8.9945Y-6.8669
X9.0063Y-8.4087
X9.0445Y-6.8669
X9.0563Y-8.4087
X9.074Y-4.1402
X9.074Y-4.1902
X9.074Y-4.2402
X9.0945Y-6.8669
X9.1063Y-8.4087
X9.3016Y-8.4055
X9.3516Y-8.4055
X9.4016Y-8.4055
T2
X6.8488Y-6.8504
X6.9488Y-6.8504
X7.0488Y-6.8504
X8.5417Y-6.8504
X8.6417Y-6.8504
X8.7417Y-6.8504
T3
X6.6043Y-1.6831
X6.6043Y-5.1476
X6.6339Y-5.6299
X6.6339Y-9.3701
X6.7126Y-2.7165
X6.7126Y-4.4587
X6.7421Y-7.1161
X6.9291Y-6.0531
X6.939Y-4.0256
X6.9488Y-4.4685
X7.0079Y-1.8602
X7.126Y-4.9803
X7.126Y-5.1673
X7.1457Y-3.0217
X7.1457Y-3.248
X7.1555Y-2.6378
X7.1555Y-4.4685
X7.1654Y-1.6929
X7.1752Y-2.0177
X7.2441Y-3.4252
X7.3327Y-1.8602
X7.3524Y-3.3169
X7.3524Y-3.5433
X7.3819Y-4.0256
X7.3819Y-4.2717
X7.5394Y-5.1673
X7.6378Y-4.4685
X7.6476Y-4.1142
X7.7362Y-5.0
X7.7756Y-1.8504
X7.7953Y-6.2395
X7.8543Y-3.2382
X7.8642Y-3.0118
X7.9134Y-7.0
X7.9331Y-2.628
X7.9429Y-1.6929
X7.9429Y-2.0079
X7.9626Y-4.1142
X7.9626Y-6.063
X7.9724Y-4.4783
X8.1102Y-1.8504
X8.1102Y-4.2913
X8.189Y-3.0118
X8.189Y-3.3366
X8.2776Y-7.7756
X8.313Y-7.0157
X8.3583Y-7.2441
X8.376Y-4.1043
X8.376Y-4.4882
X8.4055Y-3.4646
X8.4163Y-6.7913
X8.4685Y-7.1299
X8.5138Y-3.0217
X8.5236Y-3.3268
X8.5236Y-3.5827
X8.563Y-1.8504
X8.5709Y-6.6575
X8.5984Y-5.9488
X8.7106Y-2.6476
X8.7303Y-1.6929
X8.7303Y-2.0079
X8.8878Y-1.8504
X8.8976Y-7.5315
X8.9173Y-3.0217
X8.9173Y-3.3366
X9.0945Y-4.4685
X9.1929Y-3.0906
X9.2559Y-1.6929
X9.2717Y-5.6004
X9.2913Y-4.4685
X9.4094Y-3.3661
X9.4193Y-3.622
X9.439Y-5.4528
X9.439Y-5.7283
X9.4685Y-4.4587
X9.4961Y-7.0472
X9.4961Y-7.2283
X9.5866Y-4.3898
X9.5866Y-9.3602
X9.5965Y-3.4744
X9.5965Y-3.75
X9.5965Y-5.6004
X9.626Y-4.6457
X9.6457Y-6.0531
X9.6752Y-8.6713
X9.7441Y-3.622
X9.7539Y-3.3071
X9.7933Y-4.1929
X9.872Y-7.3622
X9.872Y-7.8642
X9.8819Y-4.3996
X9.8819Y-4.6457
X9.9114Y-3.4646
X9.9705Y-5.0394
X10.0197Y-4.1929
X10.0591Y-7.1654
X10.1476Y-8.3563
X10.2067Y-4.6654
X10.2067Y-5.0394
X10.2165Y-4.0945
X10.2657Y-6.9783
X10.3051Y-6.7028
X10.3839Y-3.9075
X10.3839Y-4.8425
X10.3839Y-5.1378
T4
X6.7259Y-4.6787
X6.7259Y-5.0787
X6.7803Y-5.2937
X6.7803Y-5.3937
X6.8637Y-6.1945
X6.8637Y-6.5945
X6.9031Y-7.4508
X6.9063Y-7.2835
X6.9063Y-7.6181
X6.9193Y-7.7791
X6.9193Y-8.1791
X6.9193Y-8.6091
X6.9193Y-9.0091
X6.9425Y-4.6787
X6.9425Y-5.0787
X6.9969Y-5.7677
X6.9984Y-5.6252
X7.0512Y-5.9213
X7.0559Y-6.0583
X7.0559Y-6.1583
X7.0559Y-6.2583
X7.0559Y-6.3583
X7.0687Y-6.5425
X7.0687Y-6.6213
X7.0803Y-5.2937
X7.0803Y-5.3937
X7.2244Y-7.7791
X7.2244Y-8.1791
X7.2246Y-8.6024
X7.2246Y-9.0024
X7.248Y-5.9213
X7.2839Y-6.8012
X7.2839Y-7.1012
X7.3031Y-7.4508
X7.3063Y-7.2835
X7.3063Y-7.6181
X7.3559Y-6.0583
X7.3559Y-6.1583
X7.3559Y-6.2583
X7.3559Y-6.3583
X7.3836Y-6.4835
X7.3836Y-6.6803
X7.3839Y-6.8012
X7.3839Y-7.1012
X7.3969Y-5.7677
X7.3984Y-5.6252
X7.4839Y-6.8012
X7.4839Y-7.1012
X7.5303Y-7.7791
X7.5303Y-8.1791
X7.5303Y-8.6024
X7.5303Y-9.0024
X7.5394Y-6.0531
X7.5839Y-6.8012
X7.5839Y-7.1012
X7.6395Y-6.1945
X7.6395Y-6.5945
X7.6839Y-6.8012
X7.6839Y-7.1012
X7.7362Y-6.0531
X7.7839Y-6.8012
X7.7839Y-7.1012
X7.8322Y-8.6024
X7.8322Y-9.0024
X7.8346Y-7.7693
X7.8346Y-8.1693
X7.8839Y-6.8012
X7.8839Y-7.1012
X7.907Y-6.1945
X7.907Y-6.5945
X7.9839Y-6.8012
X7.9839Y-7.1012
X8.0614Y-5.6299
X8.0614Y-5.7717
X8.0906Y-5.9213
X8.0992Y-6.0583
X8.0992Y-6.1583
X8.0992Y-6.2583
X8.0992Y-6.3583
X8.1039Y-6.5551
X8.1039Y-6.6339
X8.1348Y-8.6024
X8.1348Y-9.0024
X8.1398Y-7.7693
X8.1398Y-8.1693
X8.2874Y-5.9213
X8.3992Y-6.0583
X8.3992Y-6.1583
X8.3992Y-6.2583
X8.3992Y-6.3583
X8.4188Y-6.4961
X8.4188Y-6.6929
X8.4449Y-7.7693
X8.4449Y-8.1693
X8.4459Y-8.6024
X8.4459Y-9.0024
X8.4614Y-5.6299
X8.4614Y-5.7717
X8.6516Y-6.0531
X8.7402Y-7.7693
X8.7402Y-8.1693
X8.7402Y-8.6024
X8.7402Y-9.0024
X8.75Y-6.1945
X8.75Y-6.5945
X8.8484Y-6.0531
X8.8785Y-5.3041
X8.8785Y-5.4041
X9.0094Y-4.6425
X9.0094Y-5.0425
X9.0421Y-6.0531
X9.0453Y-6.1945
X9.0453Y-6.5945
X9.0453Y-7.1358
X9.0453Y-7.5358
X9.0453Y-7.7693
X9.0453Y-8.1693
X9.0559Y-8.6024
X9.0559Y-9.0024
X9.1785Y-5.3041
X9.1785Y-5.4041
X9.1866Y-4.6457
X9.1866Y-5.0457
X9.3504Y-6.6177
X9.3504Y-7.0177
X9.3504Y-7.1327
X9.3504Y-7.5327
X9.3504Y-7.7693
X9.3504Y-8.1693
X9.3512Y-8.6024
X9.3512Y-9.0024
X9.4421Y-6.0531
T5
X9.8504Y-5.3976
X9.8504Y-5.6732
X10.1654Y-5.3976
X10.1654Y-5.6732
T6
X8.2541Y-6.8504
X8.2541Y-7.0504
X9.6771Y-7.1819
X9.8771Y-7.1819
T7
X6.9193Y-9.1638
X6.9193Y-9.2638
X7.2246Y-9.1571
X7.2246Y-9.2571
X7.4346Y-5.3543
X7.5303Y-9.1571
X7.5303Y-9.2571
X7.5346Y-5.3543
X7.8322Y-9.1567
X7.8322Y-9.2567
X8.1348Y-9.1567
X8.1348Y-9.2567
X8.4459Y-9.1567
X8.4459Y-9.2567
X8.496Y-5.3543
X8.596Y-5.3543
X8.7402Y-9.1567
X8.7402Y-9.2567
X9.0559Y-9.1567
X9.0559Y-9.2567
X9.3002Y-6.3846
X9.3512Y-9.1567
X9.3512Y-9.2567
X9.4002Y-6.3846
T8
X6.6607Y-2.4606
X6.7453Y-7.2476
X6.7453Y-7.3476
X6.7453Y-7.4476
X6.7453Y-7.5476
X6.7453Y-7.6476
X6.844Y-5.6433
X6.844Y-5.7433
X6.8575Y-2.4606
X7.4481Y-2.4606
X7.5376Y-7.4508
X7.6376Y-7.4508
X7.6449Y-2.4606
X7.7376Y-7.4508
X7.8749Y-3.1302
X7.907Y-5.648
X7.907Y-5.748
X7.9749Y-3.1302
X7.9776Y-7.4508
X8.0749Y-3.1302
X8.0776Y-7.4508
X8.15Y-7.6181
X8.1776Y-7.4508
X8.2303Y-2.4606
X8.25Y-7.6181
X8.2776Y-7.4508
X8.3776Y-7.4508
X8.4271Y-2.4606
X8.4776Y-7.4508
X9.0229Y-2.4409
X9.2197Y-2.4409
X9.4276Y-1.6984
X9.4276Y-1.7984
X9.4276Y-1.8984
X9.4276Y-1.9984
X9.4276Y-2.0984
X9.4276Y-2.1984
X9.4276Y-2.2984
X9.4276Y-2.3984
X9.4276Y-2.4984
X9.4276Y-2.5984
X9.4276Y-2.6984
X9.4276Y-2.7984
X9.4276Y-2.8984
X9.4276Y-2.9984
X9.4276Y-3.0984
X9.5276Y-1.6984
X9.5276Y-1.7984
X9.5276Y-1.8984
X9.5276Y-1.9984
X9.5276Y-2.0984
X9.5276Y-2.1984
X9.5276Y-2.2984
X9.5276Y-2.3984
X9.5276Y-2.4984
X9.5276Y-2.5984
X9.5276Y-2.6984
X9.5276Y-2.7984
X9.5276Y-2.8984
X9.5276Y-2.9984
X9.5276Y-3.0984
X9.6787Y-7.6346
X9.711Y-1.6984
X9.711Y-1.7984
X9.711Y-1.8984
X9.711Y-1.9984
X9.711Y-2.0984
X9.711Y-2.1984
X9.711Y-2.2984
X9.711Y-2.3984
X9.711Y-2.4984
X9.711Y-2.5984
X9.711Y-2.6984
X9.711Y-2.7984
X9.711Y-2.8984
X9.711Y-2.9984
X9.711Y-3.0984
X9.811Y-1.6984
X9.811Y-1.7984
X9.811Y-1.8984
X9.811Y-1.9984
X9.811Y-2.0984
X9.811Y-2.1984
X9.811Y-2.2984
X9.811Y-2.3984
X9.811Y-2.4984
X9.811Y-2.5984
X9.811Y-2.6984
X9.811Y-2.7984
X9.811Y-2.8984
X9.811Y-2.9984
X9.811Y-3.0984
X9.8362Y-8.3161
X9.8362Y-8.513
X9.8755Y-7.6346
X9.9527Y-5.1772
X9.9945Y-1.6984
X9.9945Y-1.7984
X9.9945Y-1.8984
X9.9945Y-1.9984
X9.9945Y-2.0984
X9.9945Y-2.1984
X9.9945Y-2.2984
X9.9945Y-2.3984
X9.9945Y-2.4984
X9.9945Y-2.5984
X9.9945Y-2.6984
X9.9945Y-2.7984
X9.9945Y-2.8984
X9.9945Y-2.9984
X9.9945Y-3.0984
X10.0527Y-5.1772
X10.0945Y-1.6984
X10.0945Y-1.7984
X10.0945Y-1.8984
X10.0945Y-1.9984
X10.0945Y-2.0984
X10.0945Y-2.1984
X10.0945Y-2.2984
X10.0945Y-2.3984
X10.0945Y-2.4984
X10.0945Y-2.5984
X10.0945Y-2.6984
X10.0945Y-2.7984
X10.0945Y-2.8984
X10.0945Y-2.9984
X10.0945Y-3.0984
X10.278Y-1.6984
X10.278Y-1.7984
X10.278Y-1.8984
X10.278Y-1.9984
X10.278Y-2.0984
X10.278Y-2.1984
X10.278Y-2.2984
X10.278Y-2.3984
X10.278Y-2.4984
X10.278Y-2.5984
X10.278Y-2.6984
X10.278Y-2.7984
X10.278Y-2.8984
X10.278Y-2.9984
X10.278Y-3.0984
X10.378Y-1.6984
X10.378Y-1.7984
X10.378Y-1.8984
X10.378Y-1.9984
X10.378Y-2.0984
X10.378Y-2.1984
X10.378Y-2.2984
X10.378Y-2.3984
X10.378Y-2.4984
X10.378Y-2.5984
X10.378Y-2.6984
X10.378Y-2.7984
X10.378Y-2.8984
X10.378Y-2.9984
X10.378Y-3.0984
T9
X7.3508Y-3.4252
X7.3508Y-4.9978
X7.4508Y-3.4252
X7.4508Y-4.9978
X7.5508Y-3.4252
X7.5508Y-4.9978
X8.4039Y-4.9978
X8.5039Y-4.9978
X8.5304Y-3.4646
X8.6039Y-4.9978
X8.6304Y-3.4646
X8.7304Y-3.4646
X9.6787Y-8.0261
X9.9086Y-6.861
X10.0787Y-8.0261
X10.2714Y-8.2607
X10.2714Y-8.3607
X10.2714Y-8.4607
X10.3086Y-6.861
T10
X7.1481Y-3.8386
X7.1528Y-4.2913
X7.1528Y-4.6457
X7.7481Y-3.8386
X7.7528Y-4.2913
X7.7528Y-4.6457
X8.2125Y-4.6654
X8.2173Y-4.2717
X8.2308Y-3.8386
X8.8125Y-4.6654
X8.8173Y-4.2717
X8.8308Y-3.8386
X9.9937Y-5.9705
X9.9937Y-6.5705
X10.2318Y-5.9705
X10.2318Y-6.5705
T11
X10.1679Y-4.3079
X10.1679Y-4.5079
X10.2692Y-7.1425
X10.2692Y-7.3425
T12
X6.8575Y-2.8543
X7.1725Y-1.8606
X7.1725Y-2.4606
X7.4575Y-2.8543
X7.6449Y-2.8543
X7.9402Y-1.8504
X7.9402Y-2.4504
X8.2449Y-2.8543
X8.4276Y-2.8543
X8.7276Y-1.8457
X8.7276Y-2.4457
X9.0276Y-2.8543
X9.1866Y-3.3614
X9.1866Y-3.9614
X9.439Y-5.0051
X9.439Y-5.6051
X9.4866Y-4.8014
X9.6Y-3.6173
X9.6Y-4.2173
X10.0866Y-4.8014
T13
X6.7047Y-1.9331
X6.7047Y-8.8307
X10.2087Y-3.4606
X10.2087Y-8.8307
M30
